HIERARCHY
ROOT Hips
{
 OFFSET 0.000000 0.000000 0.000000
 CHANNELS 6 Xposition Yposition Zposition Yrotation Xrotation Zrotation
 JOINT Chest
 {
  OFFSET 0.000000 9.585900 0.002600
  CHANNELS 3 Yrotation Xrotation Zrotation
  JOINT Chest2
  {
   OFFSET 0.000000 9.601200 -0.005300
   CHANNELS 3 Yrotation Xrotation Zrotation
   JOINT Chest3
   {
    OFFSET 0.000000 9.561800 0.000000
    CHANNELS 3 Yrotation Xrotation Zrotation
    JOINT Chest4
    {
     OFFSET 0.000000 9.552100 0.000000
     CHANNELS 3 Yrotation Xrotation Zrotation
     JOINT Neck
     {
      OFFSET 0.000000 14.453000 0.000000
      CHANNELS 3 Yrotation Xrotation Zrotation
      JOINT Head
      {
       OFFSET 0.000000 8.936500 -0.011300
       CHANNELS 3 Yrotation Xrotation Zrotation
       End Site
       {
        OFFSET 0.000000 17.073600 -0.006000
       }
      }
     }
     JOINT RightCollar
     {
      OFFSET -2.921100 9.558500 0.000000
      CHANNELS 3 Yrotation Xrotation Zrotation
      JOINT RightShoulder
      {
       OFFSET -13.519700 0.000000 0.000000
       CHANNELS 3 Yrotation Xrotation Zrotation
       JOINT RightElbow
       {
        OFFSET 0.000000 -29.696600 0.000000
        CHANNELS 3 Yrotation Xrotation Zrotation
        JOINT RightWrist
        {
         OFFSET 0.000000 -24.004700 0.000000
         CHANNELS 3 Yrotation Xrotation Zrotation
         End Site
         {
          OFFSET 0.000000 -17.728500 0.000000
         }
        }
       }
      }
     }
     JOINT LeftCollar
     {
      OFFSET 2.921100 9.558500 0.000000
      CHANNELS 3 Yrotation Xrotation Zrotation
      JOINT LeftShoulder
      {
       OFFSET 13.519700 0.000000 0.000000
       CHANNELS 3 Yrotation Xrotation Zrotation
       JOINT LeftElbow
       {
        OFFSET 0.000000 -29.696600 0.000000
        CHANNELS 3 Yrotation Xrotation Zrotation
        JOINT LeftWrist
        {
         OFFSET 0.000000 -24.004700 0.000000
         CHANNELS 3 Yrotation Xrotation Zrotation
         End Site
         {
          OFFSET 0.000000 -17.728500 0.000000
         }
        }
       }
      }
     }
    }
   }
  }
 }
 JOINT RightHip
 {
  OFFSET -7.771700 -0.012900 -0.001300
  CHANNELS 3 Yrotation Xrotation Zrotation
  JOINT RightKnee
  {
   OFFSET 0.000000 -40.869800 0.001200
   CHANNELS 3 Yrotation Xrotation Zrotation
   JOINT RightAnkle
   {
    OFFSET 0.000000 -39.717900 0.002100
    CHANNELS 3 Yrotation Xrotation Zrotation
    JOINT RightToe
    {
     OFFSET 0.000000 -4.965400 11.033500
     CHANNELS 3 Yrotation Xrotation Zrotation
     End Site
     {
      OFFSET 0.000000 -1.423100 5.872300
     }
    }
   }
  }
 }
 JOINT LeftHip
 {
  OFFSET 7.771700 -0.012900 -0.001300
  CHANNELS 3 Yrotation Xrotation Zrotation
  JOINT LeftKnee
  {
   OFFSET 0.000000 -40.869800 0.001200
   CHANNELS 3 Yrotation Xrotation Zrotation
   JOINT LeftAnkle
   {
    OFFSET 0.000000 -39.717900 0.002100
    CHANNELS 3 Yrotation Xrotation Zrotation
    JOINT LeftToe
    {
     OFFSET 0.000000 -4.965400 11.033500
     CHANNELS 3 Yrotation Xrotation Zrotation
     End Site
     {
      OFFSET 0.000000 -1.423100 5.872300
     }
    }
   }
  }
 }
}
MOTION
Frames: 11
Frame Time: 0.008333
-250.974925 57.176408 154.767229 178.148456 -51.751410 0.232756 2.306378 28.552407 3.980797 0.261144 5.289938 0.615030 0.436764 8.304094 0.979456 1.650256 23.037546 2.987962 -3.572431 17.369696 -3.476175 -5.420545 -3.582938 -5.210466 3.228302 0.199981 -0.943621 44.397944 -51.631458 -28.684586 -167.425156 -47.653603 -166.996725 9.123305 -12.979008 -61.501930 -13.547193 0.088501 -3.746979 -6.086873 -28.132760 -0.225826 -16.502963 -59.034912 -20.820314 1.933853 -6.345102 8.895453 6.388037 -22.596034 -5.053656 -10.360098 61.453152 -11.976271 2.999098 25.794766 3.284979 -0.599960 -12.710075 5.501187 -10.817629 -22.908429 -3.009354 32.225019 61.596235 30.454706 -12.728498 12.993544 -6.402696 -0.024028 -0.027113 -0.010525
-250.974605 57.173689 154.760730 178.159012 -51.677063 0.215330 2.317965 28.512203 3.990084 0.262547 5.286821 0.614878 0.439110 8.299363 0.979258 1.648679 23.032269 2.989448 -3.600912 17.276960 -3.529188 -5.453677 -3.755987 -5.297033 3.233514 0.191981 -0.939498 44.408098 -51.640178 -28.702481 -167.419481 -47.643324 -166.976909 9.117670 -12.944806 -61.484993 -13.549345 0.080709 -3.750299 -6.095490 -28.124461 -0.219845 -16.502274 -59.031907 -20.823481 1.929288 -6.338090 8.885063 6.370556 -22.671982 -5.059709 -10.337326 61.467806 -11.948407 2.993254 25.776501 3.268053 -0.600182 -12.703817 5.504232 -10.823750 -22.983281 -2.982515 32.222009 61.617453 30.459207 -12.729509 12.972328 -6.402217 -0.028005 -0.019977 -0.010512
-250.975456 57.175419 154.750470 178.157532 -51.636356 0.214393 2.327358 28.531468 3.985738 0.261946 5.257343 0.616392 0.443976 8.323738 0.976039 1.650845 22.994253 2.996309 -3.625026 17.191268 -3.584502 -5.479019 -3.927186 -5.388627 3.242039 0.194130 -0.938094 44.425622 -51.651398 -28.728490 -167.410211 -47.635869 -166.960494 9.090879 -12.894694 -61.436851 -13.543316 0.075101 -3.755636 -6.098639 -28.096077 -0.215524 -16.529001 -59.060189 -20.804133 1.935370 -6.328967 8.874266 6.352330 -22.715618 -5.069441 -10.300080 61.483833 -11.917457 2.997386 25.768048 3.261193 -0.607688 -12.707865 5.504892 -10.806644 -23.019773 -2.974312 32.220125 61.632215 30.469088 -12.733674 12.952232 -6.397351 -0.026040 -0.016727 -0.010221
-250.975520 57.178102 154.739401 178.155140 -51.602817 0.209411 2.339967 28.540970 3.993010 0.261405 5.246686 0.615973 0.442808 8.304954 0.978086 1.650588 22.986039 2.996471 -3.636048 17.151733 -3.612785 -5.509413 -4.129616 -5.505635 3.250740 0.208277 -0.938639 44.449825 -51.653988 -28.760622 -167.406319 -47.632102 -166.927975 9.080219 -12.845200 -61.416590 -13.530333 0.089962 -3.778645 -6.124576 -28.104739 -0.187315 -16.488187 -59.049164 -20.845122 1.909415 -6.333758 8.875292 6.349980 -22.750106 -5.069355 -10.300732 61.500217 -11.912777 2.993908 25.752502 3.250933 -0.605414 -12.708290 5.507100 -10.804298 -23.050196 -2.960054 32.242801 61.655866 30.490944 -12.732159 12.917500 -6.390446 -0.030615 -0.008300 -0.009398
-250.976422 57.179541 154.729347 178.164100 -51.559911 0.200779 2.341560 28.531903 3.994722 0.260193 5.244274 0.615964 0.442041 8.287203 0.979038 1.653611 22.995921 2.998392 -3.648075 17.094723 -3.640392 -5.533919 -4.326508 -5.625027 3.263941 0.204763 -0.942110 44.470757 -51.658484 -28.794744 -167.419387 -47.631414 -166.919230 9.048424 -12.793678 -61.355542 -13.527141 0.080183 -3.783205 -6.133677 -28.109634 -0.176123 -16.410822 -59.013702 -20.935337 1.871367 -6.343955 8.879131 6.337551 -22.792297 -5.079509 -10.288223 61.513446 -11.895075 2.993152 25.740661 3.238080 -0.605631 -12.709591 5.509656 -10.799138 -23.093505 -2.955598 32.249679 61.669159 30.509955 -12.735173 12.904545 -6.388699 -0.036292 -0.009194 -0.010073
-250.977272 57.180581 154.719773 178.174139 -51.514367 0.192087 2.341938 28.519703 3.996088 0.261206 5.241849 0.615120 0.447422 8.306469 0.978507 1.659302 22.983975 3.001555 -3.683276 16.941998 -3.737687 -5.532737 -4.429460 -5.687435 3.273444 0.191184 -0.941129 44.489648 -51.661483 -28.833001 -167.431505 -47.627360 -166.911686 9.032225 -12.758973 -61.317539 -13.531109 0.061299 -3.781641 -6.142878 -28.113750 -0.161979 -16.388361 -59.009391 -20.970135 1.871178 -6.334175 8.865545 6.323879 -22.839028 -5.087300 -10.292622 61.527974 -11.898787 2.995566 25.726606 3.228578 -0.611700 -12.709096 5.513468 -10.776875 -23.141663 -2.954226 32.241237 61.686334 30.528597 -12.745721 12.893262 -6.389486 -0.033382 -0.012856 -0.008693
-250.977668 57.182564 154.709713 178.188090 -51.476776 0.179559 2.336659 28.498621 3.997586 0.266229 5.277157 0.613983 0.444900 8.280032 0.979167 1.661295 22.978916 3.002455 -3.700499 16.845630 -3.811002 -5.534287 -4.561312 -5.776822 3.276990 0.180860 -0.940804 44.515780 -51.653771 -28.858367 -167.433959 -47.642482 -166.903802 9.009356 -12.710912 -61.260386 -13.530899 0.048984 -3.780486 -6.146969 -28.104643 -0.156821 -16.367895 -59.005589 -20.996328 1.869639 -6.327832 8.856238 6.311392 -22.877890 -5.097664 -10.285026 61.554756 -11.876887 2.978098 25.693732 3.197921 -0.605508 -12.699825 5.521691 -10.770607 -23.181421 -2.949575 32.247001 61.702453 30.549448 -12.752324 12.882133 -6.392668 -0.033013 -0.016830 -0.004629
-250.977046 57.183923 154.700495 178.192037 -51.435484 0.170893 2.339258 28.473889 4.003642 0.267942 5.298135 0.611665 0.444430 8.268774 0.978893 1.662165 22.963277 3.003924 -3.712174 16.780745 -3.871887 -5.531776 -4.703896 -5.880781 3.282087 0.180711 -0.939917 44.534516 -51.646625 -28.874589 -167.416399 -47.685170 -166.875904 8.993081 -12.663015 -61.210262 -13.528988 0.045914 -3.782346 -6.145459 -28.087579 -0.150322 -16.348524 -59.009388 -21.023112 1.869859 -6.321085 8.849653 6.300340 -22.917992 -5.096466 -10.274824 61.561822 -11.869086 2.972881 25.683787 3.192052 -0.604396 -12.698135 5.521898 -10.768829 -23.222317 -2.937830 32.256313 61.717348 30.568473 -12.753975 12.866568 -6.393698 -0.028284 -0.016347 -0.005359
-250.976855 57.186725 154.690469 178.197997 -51.406638 0.165798 2.340585 28.476908 4.002729 0.266952 5.288526 0.611769 0.444491 8.273418 0.978960 1.663307 22.947388 3.004422 -3.721536 16.721274 -3.932072 -5.523653 -4.838485 -5.987618 3.291970 0.189924 -0.939388 44.546886 -51.631183 -28.890680 -167.429448 -47.692260 -166.843926 8.959622 -12.616033 -61.151530 -13.516582 0.063535 -3.798425 -6.169896 -28.095456 -0.124228 -16.323312 -59.006749 -21.050730 1.882064 -6.288003 8.828582 6.288447 -22.945424 -5.098716 -10.266302 61.568984 -11.864837 2.970472 25.677934 3.184570 -0.605672 -12.700845 5.525690 -10.765413 -23.250313 -2.934989 32.256337 61.725157 30.578461 -12.752060 12.863811 -6.399167 -0.025131 -0.021639 -0.002385
-250.976318 57.189673 154.680711 178.208648 -51.380614 0.157175 2.340787 28.513942 4.001784 0.265678 5.232628 0.614137 0.444181 8.293921 0.979220 1.662314 22.969452 3.003426 -3.723375 16.628872 -3.990181 -5.510422 -4.965858 -6.097466 3.306274 0.187766 -0.941839 44.579221 -51.657226 -28.942588 -167.415152 -47.721045 -166.832007 8.923486 -12.568587 -61.086181 -13.510899 0.019218 -3.789535 -6.170847 -28.081515 -0.120218 -16.305631 -59.010550 -21.072279 1.885108 -6.278099 8.822939 6.274162 -22.970694 -5.101553 -10.257963 61.580869 -11.857723 2.966506 25.667059 3.176796 -0.606340 -12.702594 5.526892 -10.759534 -23.275702 -2.935240 32.252790 61.731658 30.591847 -12.757249 12.861408 -6.410758 -0.022429 -0.027572 0.002427
-250.974036 57.191872 154.672018 178.204292 -51.350420 0.151545 2.349068 28.514662 4.012630 0.267488 5.231213 0.612894 0.443230 8.278356 0.978902 1.661245 22.981421 3.004476 -3.725224 16.564350 -4.051592 -5.491127 -5.086258 -6.209891 3.310446 0.180235 -0.943770 44.596850 -51.660400 -28.964236 -167.403011 -47.752712 -166.819686 8.883877 -12.519147 -61.012510 -13.501789 0.011595 -3.799244 -6.186243 -28.083783 -0.101853 -16.301985 -59.020109 -21.076806 1.895291 -6.267200 8.819673 6.266046 -23.002511 -5.093519 -10.251295 61.590778 -11.855599 2.966893 25.660383 3.175068 -0.610323 -12.705101 5.526715 -10.749043 -23.305280 -2.926552 32.272696 61.752700 30.631582 -12.765595 12.832310 -6.417234 -0.022706 -0.023966 0.000581
